<?xml version="1.0" encoding="UTF-8"?>
<svg width="24px" height="24px" viewBox="0 0 24 24" version="1.1" xmlns="http://www.w3.org/2000/svg">
    <g stroke="none" stroke-width="1" fill="none" fill-rule="evenodd">
        <path d="M12,2 C6.48,2 2,6.48 2,12 C2,13.82 2.51,15.53 3.44,16.94 L2.05,22 L7.3,20.62 C8.75,21.41 10.38,21.83 12,21.83 C17.52,21.83 22,17.35 22,11.83 C22,6.31 17.52,2 12,2 Z" fill="#25D366"/>
        <path d="M17.05,14.41 C16.84,14.17 15.67,13.41 15.45,13.3 C15.23,13.19 15.07,13.14 14.91,13.38 C14.75,13.62 14.3,14.17 14.15,14.35 C14,14.53 13.85,14.55 13.61,14.3 C12.86,13.5 12.42,12.97 11.97,12.47 C11.73,12.23 11.78,12.08 11.89,11.87 C12,11.66 11.89,11.5 11.78,11.36 C11.67,11.22 11.17,10.41 10.97,10.01 C10.77,9.61 10.58,9.66 10.42,9.66 C10.26,9.66 10.07,9.66 9.88,9.66 C9.69,9.66 9.41,9.72 9.17,9.97 C8.93,10.22 8.5,10.66 8.5,11.41 C8.5,12.16 9.17,13.41 9.33,13.66 C9.5,13.91 10.75,15.66 12.45,16.66 C14.15,17.66 15.67,17.41 16.17,17.16 C16.67,16.91 17.05,16.41 17.17,16.16 C17.3,15.91 17.26,15.66 17.05,14.41 Z" fill="#FFFFFF"/>
    </g>
</svg> 